ffmpeg started on 2016-12-07 at 06:46:01
Report written to "Output/x264/results/ffmpeg/crowd_run_2160p50slow2500k.log"
Command line:
Tools/ffmpeg/ffmpeg -benchmark -y -i Input/y4m/crowd_run_2160p50.y4m -c:v libx264 -preset slow -b:v 2500k -an Output/x264/encoded/crowd_run_2160p50slow2500k.mkv
ffmpeg version N-82227-gdb23fde Copyright (c) 2000-2016 the FFmpeg developers
  built with gcc 5.4.0 (Ubuntu 5.4.0-6ubuntu1~16.04.2) 20160609
  configuration: --prefix=/home/jaroslav/ffmpeg_build --pkg-config-flags=--static --extra-cflags=-I/home/jaroslav/ffmpeg_build/include --extra-ldflags=-L/home/jaroslav/ffmpeg_build/lib --bindir=/home/jaroslav/bin --enable-gpl --enable-libass --enable-libfdk-aac --enable-libfreetype --enable-libmp3lame --enable-libopus --enable-libtheora --enable-libvorbis --enable-libvpx --enable-libx264 --enable-libx265 --enable-nvenc --enable-libmfx --enable-libxvid --enable-libgsm --enable-libopencore-amrnb --enable-version3 --enable-nonfree
  libavutil      55. 35.100 / 55. 35.100
  libavcodec     57. 66.101 / 57. 66.101
  libavformat    57. 57.100 / 57. 57.100
  libavdevice    57.  2.100 / 57.  2.100
  libavfilter     6. 66.100 /  6. 66.100
  libswscale      4.  3.100 /  4.  3.100
  libswresample   2.  4.100 /  2.  4.100
  libpostproc    54.  2.100 / 54.  2.100
Input #0, yuv4mpegpipe, from 'Input/y4m/crowd_run_2160p50.y4m':
  Duration: 00:00:10.00, start: 0.000000, bitrate: 4976642 kb/s
    Stream #0:0: Video: rawvideo (I420 / 0x30323449), yuv420p(progressive), 3840x2160, SAR 1:1 DAR 16:9, 50 fps, 50 tbr, 50 tbn, 50 tbc
[libx264 @ 0x45031c0] using SAR=1/1
[libx264 @ 0x45031c0] using cpu capabilities: MMX2 SSE2Fast SSSE3 SSE4.2 AVX FMA3 AVX2 LZCNT BMI2
[libx264 @ 0x45031c0] profile High, level 5.2
[libx264 @ 0x45031c0] 264 - core 148 - H.264/MPEG-4 AVC codec - Copyleft 2003-2016 - http://www.videolan.org/x264.html - options: cabac=1 ref=5 deblock=1:0:0 analyse=0x3:0x113 me=hex subme=8 psy=1 psy_rd=1.00:0.00 mixed_ref=1 me_range=16 chroma_me=1 trellis=2 8x8dct=1 cqm=0 deadzone=21,11 fast_pskip=1 chroma_qp_offset=-2 threads=6 lookahead_threads=1 sliced_threads=0 nr=0 decimate=1 interlaced=0 bluray_compat=0 constrained_intra=0 bframes=3 b_pyramid=2 b_adapt=1 b_bias=0 direct=3 weightb=1 open_gop=0 weightp=2 keyint=250 keyint_min=25 scenecut=40 intra_refresh=0 rc_lookahead=50 rc=abr mbtree=1 bitrate=2500 ratetol=1.0 qcomp=0.60 qpmin=0 qpmax=69 qpstep=4 ip_ratio=1.40 aq=1:1.00
Output #0, matroska, to 'Output/x264/encoded/crowd_run_2160p50slow2500k.mkv':
  Metadata:
    encoder         : Lavf57.57.100
    Stream #0:0: Video: h264 (libx264) (H264 / 0x34363248), yuv420p, 3840x2160 [SAR 1:1 DAR 16:9], q=-1--1, 2500 kb/s, 50 fps, 1k tbn, 50 tbc
    Metadata:
      encoder         : Lavc57.66.101 libx264
    Side data:
      cpb: bitrate max/min/avg: 0/0/2500000 buffer size: 0 vbv_delay: -1
Stream mapping:
  Stream #0:0 -> #0:0 (rawvideo (native) -> h264 (libx264))
Press [q] to stop, [?] for help
frame=   19 fps=0.0 q=0.0 size=       0kB time=00:00:00.00 bitrate=N/A speed=   0x    frame=   32 fps= 31 q=0.0 size=       0kB time=00:00:00.00 bitrate=N/A speed=   0x    frame=   44 fps= 28 q=0.0 size=       0kB time=00:00:00.00 bitrate=N/A speed=   0x    frame=   55 fps= 26 q=0.0 size=       0kB time=00:00:00.00 bitrate=N/A speed=   0x    frame=   57 fps= 12 q=0.0 size=       0kB time=00:00:00.00 bitrate=N/A speed=   0x    frame=   62 fps= 12 q=47.0 size=       1kB time=-00:00:00.01 bitrate=N/A speed=N/A    frame=   67 fps= 11 q=49.0 size=       1kB time=00:00:00.08 bitrate=  72.5kbits/s speed=0.0136x    frame=   72 fps= 11 q=61.0 size=       1kB time=00:00:00.18 bitrate=  32.4kbits/s speed=0.0278x    frame=   79 fps= 11 q=62.0 size=       1kB time=00:00:00.32 bitrate=  18.3kbits/s speed=0.0452x    frame=   84 fps= 11 q=62.0 size=       1kB time=00:00:00.42 bitrate=  13.9kbits/s speed=0.0552x    frame=   92 fps= 11 q=61.0 size=       1kB time=00:00:00.58 bitrate=  10.1kbits/s speed=0.0709x    frame=  100 fps= 11 q=61.0 size=       1kB time=00:00:00.74 bitrate=   7.9kbits/s speed=0.085x    frame=  106 fps= 11 q=61.0 size=       1kB time=00:00:00.86 bitrate=   6.8kbits/s speed=0.093x    frame=  111 fps= 11 q=61.0 size=       1kB time=00:00:00.96 bitrate=   6.1kbits/s speed=0.0973x    frame=  119 fps= 11 q=60.0 size=       1kB time=00:00:01.12 bitrate=   5.2kbits/s speed=0.108x    frame=  125 fps= 11 q=60.0 size=       1kB time=00:00:01.24 bitrate=   4.7kbits/s speed=0.113x    frame=  131 fps= 11 q=60.0 size=       1kB time=00:00:01.36 bitrate=   4.3kbits/s speed=0.118x    frame=  139 fps= 11 q=59.0 size=       1kB time=00:00:01.52 bitrate=   3.9kbits/s speed=0.125x    frame=  147 fps= 11 q=59.0 size=       1kB time=00:00:01.68 bitrate=   3.5kbits/s speed=0.13x    frame=  153 fps= 11 q=59.0 size=       1kB time=00:00:01.80 bitrate=   3.3kbits/s speed=0.133x    frame=  160 fps= 11 q=59.0 size=       1kB time=00:00:01.94 bitrate=   3.0kbits/s speed=0.137x    frame=  167 fps= 11 q=59.0 size=       1kB time=00:00:02.08 bitrate=   2.8kbits/s speed=0.141x    frame=  173 fps= 11 q=58.0 size=       1kB time=00:00:02.20 bitrate=   2.7kbits/s speed=0.143x    frame=  180 fps= 11 q=58.0 size=       1kB time=00:00:02.34 bitrate=   2.5kbits/s speed=0.147x    frame=  187 fps= 11 q=58.0 size=       1kB time=00:00:02.48 bitrate=   2.4kbits/s speed=0.149x    frame=  195 fps= 11 q=58.0 size=       1kB time=00:00:02.64 bitrate=   2.2kbits/s speed=0.152x    frame=  203 fps= 11 q=58.0 size=       1kB time=00:00:02.80 bitrate=   2.1kbits/s speed=0.156x    frame=  210 fps= 11 q=58.0 size=       1kB time=00:00:02.94 bitrate=   2.0kbits/s speed=0.158x    frame=  216 fps= 11 q=58.0 size=       1kB time=00:00:03.06 bitrate=   1.9kbits/s speed=0.16x    frame=  223 fps= 11 q=58.0 size=       1kB time=00:00:03.20 bitrate=   1.8kbits/s speed=0.161x    frame=  231 fps= 11 q=58.0 size=       1kB time=00:00:03.36 bitrate=   1.7kbits/s speed=0.165x    frame=  235 fps= 11 q=58.0 size=       1kB time=00:00:03.44 bitrate=   1.7kbits/s speed=0.164x    frame=  243 fps= 11 q=58.0 size=       1kB time=00:00:03.60 bitrate=   1.6kbits/s speed=0.166x    frame=  251 fps= 11 q=58.0 size=       1kB time=00:00:03.76 bitrate=   1.6kbits/s speed=0.168x    frame=  259 fps= 11 q=57.0 size=       1kB time=00:00:03.92 bitrate=   1.5kbits/s speed=0.17x    frame=  267 fps= 11 q=57.0 size=       1kB time=00:00:04.08 bitrate=   1.4kbits/s speed=0.171x    frame=  275 fps= 11 q=57.0 size=       1kB time=00:00:04.24 bitrate=   1.4kbits/s speed=0.173x    frame=  280 fps= 11 q=57.0 size=       1kB time=00:00:04.34 bitrate=   1.4kbits/s speed=0.173x    frame=  287 fps= 11 q=57.0 size=       1kB time=00:00:04.48 bitrate=   1.3kbits/s speed=0.174x    frame=  295 fps= 11 q=57.0 size=       1kB time=00:00:04.64 bitrate=   1.3kbits/s speed=0.176x    frame=  299 fps= 11 q=57.0 size=       1kB time=00:00:04.72 bitrate=   1.2kbits/s speed=0.175x    frame=  307 fps= 11 q=58.0 size=       1kB time=00:00:04.88 bitrate=   1.2kbits/s speed=0.17x    frame=  314 fps= 11 q=58.0 size=    1543kB time=00:00:05.02 bitrate=2517.0kbits/s speed=0.17x    frame=  320 fps= 11 q=58.0 size=    1543kB time=00:00:05.14 bitrate=2458.2kbits/s speed=0.172x    frame=  325 fps= 11 q=58.0 size=    1543kB time=00:00:05.24 bitrate=2411.3kbits/s speed=0.172x    frame=  330 fps= 11 q=58.0 size=    1543kB time=00:00:05.34 bitrate=2366.2kbits/s speed=0.172x    frame=  337 fps= 11 q=58.0 size=    1543kB time=00:00:05.48 bitrate=2305.8kbits/s speed=0.173x    frame=  344 fps= 11 q=58.0 size=    1543kB time=00:00:05.62 bitrate=2248.3kbits/s speed=0.175x    frame=  350 fps= 11 q=58.0 size=    1543kB time=00:00:05.74 bitrate=2201.3kbits/s speed=0.176x    frame=  354 fps= 11 q=58.0 size=    1543kB time=00:00:05.82 bitrate=2171.1kbits/s speed=0.175x    frame=  361 fps= 11 q=58.0 size=    1543kB time=00:00:05.96 bitrate=2120.1kbits/s speed=0.176x    frame=  367 fps= 11 q=58.0 size=    1543kB time=00:00:06.08 bitrate=2078.2kbits/s speed=0.176x    frame=  373 fps= 11 q=58.0 size=    1543kB time=00:00:06.20 bitrate=2038.0kbits/s speed=0.177x    frame=  378 fps= 11 q=58.0 size=    1543kB time=00:00:06.30 bitrate=2005.7kbits/s speed=0.177x    frame=  385 fps= 11 q=58.0 size=    1543kB time=00:00:06.44 bitrate=1962.1kbits/s speed=0.177x    frame=  393 fps= 11 q=58.0 size=    1543kB time=00:00:06.60 bitrate=1914.5kbits/s speed=0.178x    frame=  401 fps= 11 q=58.0 size=    1543kB time=00:00:06.76 bitrate=1869.2kbits/s speed=0.179x    frame=  404 fps= 11 q=58.0 size=    1543kB time=00:00:06.82 bitrate=1852.8kbits/s speed=0.178x    frame=  410 fps= 11 q=58.0 size=    1543kB time=00:00:06.94 bitrate=1820.7kbits/s speed=0.179x    frame=  417 fps= 11 q=58.0 size=    1543kB time=00:00:07.08 bitrate=1784.8kbits/s speed=0.18x    frame=  422 fps= 11 q=58.0 size=    1543kB time=00:00:07.18 bitrate=1759.9kbits/s speed=0.18x    frame=  427 fps= 11 q=58.0 size=    1543kB time=00:00:07.28 bitrate=1735.7kbits/s speed=0.18x    frame=  432 fps= 11 q=58.0 size=    1543kB time=00:00:07.38 bitrate=1712.2kbits/s speed=0.18x    frame=  438 fps= 11 q=58.0 size=    1543kB time=00:00:07.50 bitrate=1684.8kbits/s speed=0.18x    frame=  442 fps= 10 q=58.0 size=    1543kB time=00:00:07.58 bitrate=1667.0kbits/s speed=0.18x    frame=  449 fps= 11 q=58.0 size=    1543kB time=00:00:07.72 bitrate=1636.8kbits/s speed=0.181x    frame=  455 fps= 11 q=58.0 size=    1543kB time=00:00:07.84 bitrate=1611.8kbits/s speed=0.181x    frame=  459 fps= 10 q=58.0 size=    1543kB time=00:00:07.92 bitrate=1595.5kbits/s speed=0.181x    frame=  465 fps= 10 q=58.0 size=    1543kB time=00:00:08.04 bitrate=1571.7kbits/s speed=0.181x    frame=  472 fps= 10 q=58.0 size=    1543kB time=00:00:08.18 bitrate=1544.8kbits/s speed=0.182x    frame=  479 fps= 11 q=58.0 size=    1543kB time=00:00:08.32 bitrate=1518.8kbits/s speed=0.183x    frame=  483 fps= 10 q=58.0 size=    1543kB time=00:00:08.40 bitrate=1504.3kbits/s speed=0.182x    frame=  489 fps= 10 q=58.0 size=    1543kB time=00:00:08.52 bitrate=1483.1kbits/s speed=0.183x    frame=  493 fps= 10 q=58.0 size=    1543kB time=00:00:08.60 bitrate=1469.3kbits/s speed=0.182x    frame=  500 fps= 10 q=58.0 size=    1543kB time=00:00:08.74 bitrate=1445.8kbits/s speed=0.183x    frame=  500 fps=9.5 q=-1.0 Lsize=    3187kB time=00:00:09.94 bitrate=2626.7kbits/s speed=0.19x    
video:3183kB audio:0kB subtitle:0kB other streams:0kB global headers:0kB muxing overhead: 0.132653%
bench: utime=176.440s
bench: maxrss=2139068kB
[libx264 @ 0x45031c0] frame I:2     Avg QP:46.37  size: 90992
[libx264 @ 0x45031c0] frame P:126   Avg QP:50.92  size: 14996
[libx264 @ 0x45031c0] frame B:372   Avg QP:50.94  size:  3192
[libx264 @ 0x45031c0] consecutive B-frames:  0.8%  0.0%  0.0% 99.2%
[libx264 @ 0x45031c0] mb I  I16..4: 53.8% 44.3%  1.9%
[libx264 @ 0x45031c0] mb P  I16..4: 14.8%  0.9%  0.0%  P16..4: 12.6%  0.4%  3.2%  0.0%  0.0%    skip:68.1%
[libx264 @ 0x45031c0] mb B  I16..4:  0.0%  0.0%  0.0%  B16..8: 10.4%  0.0%  0.0%  direct: 0.1%  skip:89.4%  L0:30.2% L1:69.8% BI: 0.0%
[libx264 @ 0x45031c0] final ratefactor: 50.15
[libx264 @ 0x45031c0] 8x8 transform intra:9.1% inter:96.3%
[libx264 @ 0x45031c0] direct mvs  spatial:98.9% temporal:1.1%
[libx264 @ 0x45031c0] coded y,uvDC,uvAC intra: 2.1% 36.1% 0.8% inter: 0.1% 1.3% 0.0%
[libx264 @ 0x45031c0] i16 v,h,dc,p: 67% 21%  5%  7%
[libx264 @ 0x45031c0] i8 v,h,dc,ddl,ddr,vr,hd,vl,hu:  5%  4% 44%  9%  9%  8%  8%  6%  6%
[libx264 @ 0x45031c0] i4 v,h,dc,ddl,ddr,vr,hd,vl,hu:  6%  3%  2% 15% 17% 15% 14% 10% 17%
[libx264 @ 0x45031c0] i8c dc,h,v,p: 85%  7%  7%  1%
[libx264 @ 0x45031c0] Weighted P-Frames: Y:1.6% UV:0.8%
[libx264 @ 0x45031c0] ref P L0: 65.2%  0.4% 18.3%  8.0%  8.0%  0.1%
[libx264 @ 0x45031c0] ref B L0: 87.8%  6.3%  4.2%  1.7%
[libx264 @ 0x45031c0] ref B L1: 97.8%  2.2%
[libx264 @ 0x45031c0] kb/s:2607.15
